<?xml version="1.0" encoding="utf-8"?>
<!-- Generator: Adobe Illustrator 23.1.1, SVG Export Plug-In . SVG Version: 6.00 Build 0)  -->
<svg version="1.1" id="Calque_1" xmlns="http://www.w3.org/2000/svg" xmlns:xlink="http://www.w3.org/1999/xlink" x="0px" y="0px"
	 viewBox="0 0 1950 1103.1" style="enable-background:new 0 0 1950 1103.1;" xml:space="preserve">
<style type="text/css">
	.st0{fill:#FFFFFF;}
	.st1{opacity:0.12;fill:url(#SVGID_1_);enable-background:new    ;}
	.st2{fill:url(#SVGID_2_);}
	.st3{opacity:8.000000e-02;fill:url(#SVGID_3_);enable-background:new    ;}
	.st4{fill:#FF6066;}
	.st5{fill:#FFE340;}
	.st6{fill:#2D2D2C;}
	.st7{clip-path:url(#SVGID_5_);}
	.st8{clip-path:url(#SVGID_7_);}
	.st9{clip-path:url(#SVGID_9_);}
	.st10{fill:#3A4C9F;}
	.st11{fill:#273B82;}
	.st12{fill:#568BFF;}
	.st13{opacity:0.38;}
	.st14{fill:none;stroke:#FFFFFF;stroke-width:0.91;stroke-miterlimit:10;}
	.st15{fill:#388BFF;}
</style>
<title>homePage</title>
<rect y="0.1" class="st0" width="1950" height="1103"/>
<linearGradient id="SVGID_1_" gradientUnits="userSpaceOnUse" x1="1879.3687" y1="-240.321" x2="1065.4888" y2="731.869" gradientTransform="matrix(1 0 0 1 0 72.1)">
	<stop  offset="0" style="stop-color:#006DFF"/>
	<stop  offset="0.76" style="stop-color:#00BFD8"/>
</linearGradient>
<path class="st1" d="M1918,27.8l32,991.2c-172.3,66.4-422.1,45.3-561-66.1c-43-34.5-79.8-76.4-131.5-100.5
	c-113.4-52.8-274.2-8.6-366.7-86.2c-79.9-67-58.6-185-118.3-266.3c-25.9-35.3-60.7-65.6-98.7-91.4C535.2,314.5,553.1,74,691.8,0
	L1918,27.8z"/>
<linearGradient id="SVGID_2_" gradientUnits="userSpaceOnUse" x1="1898.3773" y1="-278.4722" x2="1086.6473" y2="691.1376" gradientTransform="matrix(1 0 0 1 0 72.1)">
	<stop  offset="0" style="stop-color:#374FA1"/>
	<stop  offset="0.81" style="stop-color:#458EFE"/>
</linearGradient>
<path class="st2" d="M1950,0.1v990.8c-172.6,65.8-390.9,37.2-530.1-73.2c-43.1-34.3-79.9-75.8-131.8-99.7
	c-113.7-52.3-274.8-8.6-367.5-85.5c-80.1-66.4-58.8-183.5-118.5-264.1c-25.9-35-60.8-65-98.9-90.6c-138.9-93.2-153-304.3-14-377.7
	L1950,0.1L1950,0.1z"/>
<linearGradient id="SVGID_3_" gradientUnits="userSpaceOnUse" x1="1827.0717" y1="122.0882" x2="1340.0288" y2="703.8616" gradientTransform="matrix(1 0 0 1 0 72.1)">
	<stop  offset="0" style="stop-color:#FFFFFF"/>
	<stop  offset="0.26" style="stop-color:#BFD8FF"/>
	<stop  offset="0.76" style="stop-color:#458EFE"/>
</linearGradient>
<path class="st3" d="M1950,297.1v616.1c-19.3,9.2-42.4,14.4-64.6,16.7c-72.3,7.5-147.8-7.4-207.9-41
	c-88.3-49.5-137.8-133-212.5-195.7c-57.1-48-129.5-83.6-208.1-102.4c-51.3-12.3-105.3-17.6-154.3-35
	C1032.9,531,975.4,478.6,966,416.9s38.3-128.9,112.1-143.7c62.1-12.5,126.5,11.2,190.4,9.3c54.3-1.5,104.3-21.2,149.2-44.7
	c40.4-21.1,66.9-45.6,119.4-44.6c38.9,0.8,76.6,14.3,106.9,34.3c37.1,24.5,66.2,59.5,111.2,72.3c61.4,17.6,119.3-19.3,178.8-7.5
	C1939.5,293.3,1944.8,294.9,1950,297.1z"/>
<path class="st4" fill="#FF6066;" d="M1463,138.1c0,18.5-17,33.6-37.9,33.6s-37.9-15-37.9-33.6s17-33.6,37.9-33.6S1463,119.5,1463,138.1z"/>
<path class="st0" d="M1449.1,133.6c0,13.1-24,23.7-24,23.7s-23.9-10.6-24-23.7c-0.1-16.7,24.6-12.4,24.8-4.8
	C1425.8,121.2,1449.1,117.9,1449.1,133.6z"/>
<ellipse class="st4" cx="1669.8" cy="970.9" rx="34.7" ry="30.8"/>
<path class="st0" d="M1691.8,966.7c0,12-21.9,21.7-21.9,21.7s-21.9-9.7-21.9-21.7c-0.1-15.3,22.6-11.3,22.8-4.4
	C1670.4,955.4,1691.8,952.4,1691.8,966.7z"/>
<ellipse class="st4" cx="1843.9" cy="530.1" rx="23.1" ry="20.5"/>
<path class="st0" d="M1858.5,527.3c0,8-14.6,14.5-14.6,14.5s-14.6-6.5-14.6-14.5c-0.1-10.2,15-7.5,15.1-3
	C1844.3,519.8,1858.5,517.8,1858.5,527.3z"/>
<ellipse class="st5" cx="1112.5" cy="389.9" rx="25.2" ry="22.3"/>
<path class="st6" d="M1131.3,389.9c0,9.2-8.4,16.6-18.8,16.6s-18.8-7.5-18.8-16.6H1131.3z"/>
<g>
	<g>
		<g>
			<defs>
				<path id="SVGID_4_" d="M1131.3,389.9c0,9.2-8.4,16.6-18.8,16.6s-18.8-7.5-18.8-16.6H1131.3z"/>
			</defs>
			<clipPath id="SVGID_5_">
				<use xlink:href="#SVGID_4_"  style="overflow:visible;"/>
			</clipPath>
			<g class="st7">
				<ellipse class="st4" cx="1112.5" cy="406.7" rx="12.7" ry="7.8"/>
			</g>
		</g>
	</g>
</g>
<path class="st6" d="M1097.1,386c-0.4,0-0.7-0.2-0.8-0.6c-0.1-0.4,0.2-0.8,0.6-0.9l5.6-1.2l-5.2-2.9c-0.4-0.2-0.5-0.7-0.3-1.1l0,0
	l0,0c0.2-0.4,0.7-0.5,1.1-0.2h0.1l7,3.8c0.3,0.1,0.5,0.5,0.4,0.8s-0.4,0.6-0.7,0.6l-7.6,1.7L1097.1,386z"/>
<path class="st6" d="M1127.9,386h-0.2l-7.6-1.7c-0.3-0.1-0.6-0.3-0.7-0.6c-0.1-0.3,0.1-0.7,0.4-0.8l7-3.8c0.4-0.2,0.9-0.1,1.2,0.2
	c0.3,0.3,0.1,0.8-0.3,1.1l-5.2,2.9l5.6,1.2c0.5,0.1,0.8,0.5,0.6,0.9C1128.7,385.8,1128.3,386,1127.9,386z"/>
<path class="st5" d="M1840.6,702.7c0,16.1-14.8,29.2-33,29.2s-33-13.1-33-29.2s14.8-29.2,33-29.2S1840.6,686.6,1840.6,702.7z"/>
<path class="st6" d="M1832.2,702.7c0,12-11,21.8-24.6,21.8s-24.6-9.7-24.6-21.8H1832.2z"/>
<g>
	<g>
		<g>
			<defs>
				<path id="SVGID_6_" d="M1832.2,702.7c0,12-11,21.8-24.6,21.8s-24.6-9.7-24.6-21.8H1832.2z"/>
			</defs>
			<clipPath id="SVGID_7_">
				<use xlink:href="#SVGID_6_"  style="overflow:visible;"/>
			</clipPath>
			<g class="st8">
				<path class="st4" d="M1824.2,724.7c0,5.6-7.4,10.2-16.6,10.2s-16.6-4.6-16.6-10.2s7.4-10.2,16.6-10.2S1824.2,719.1,1824.2,724.7
					z"/>
			</g>
		</g>
	</g>
</g>
<path class="st6" d="M1787.5,697.7c-0.5,0-1-0.3-1.1-0.8s0.2-1.1,0.8-1.2l0,0l7.3-1.6l-6.9-3.7c-0.5-0.3-0.7-0.9-0.4-1.3l0,0l0,0
	c0.4-0.5,1.1-0.6,1.6-0.3l9.2,5c0.4,0.2,0.6,0.6,0.5,1s-0.4,0.7-0.8,0.8l-9.9,2.2L1787.5,697.7z"/>
<path class="st6" d="M1827.8,697.7h-0.3l-9.9-2.2c-0.4-0.1-0.8-0.4-0.8-0.8c-0.1-0.4,0.1-0.8,0.5-1l9.2-5c0.5-0.3,1.2-0.2,1.6,0.3
	c0.3,0.4,0.2,1-0.2,1.3l0,0c0,0-0.1,0.1-0.2,0.1l-6.9,3.7l7.3,1.6c0.5,0.1,0.9,0.6,0.8,1.2l0,0l0,0
	C1828.8,697.4,1828.3,697.7,1827.8,697.7z"/>
<ellipse class="st5" cx="1576.8" cy="167.3" rx="30.3" ry="26.9"/>
<path class="st6" d="M1599.3,167.3c0,11.1-10.1,20-22.6,20s-22.6-9-22.6-20H1599.3z"/>
<g>
	<g>
		<g>
			<defs>
				<path id="SVGID_8_" d="M1599.3,167.3c0,11.1-10.1,20-22.6,20s-22.6-9-22.6-20H1599.3z"/>
			</defs>
			<clipPath id="SVGID_9_">
				<use xlink:href="#SVGID_8_"  style="overflow:visible;"/>
			</clipPath>
			<g class="st9">
				<path class="st4" d="M1592,187.5c0,5.2-6.8,9.4-15.2,9.4s-15.2-4.2-15.2-9.4s6.8-9.4,15.2-9.4S1592,182.3,1592,187.5z"/>
			</g>
		</g>
	</g>
</g>
<path class="st6" d="M1558.2,162.6c-0.5,0-0.9-0.3-1-0.7c-0.1-0.5,0.2-1,0.7-1.1h0.1l6.7-1.5l-6.3-3.4c-0.4-0.2-0.6-0.7-0.4-1.2
	c0,0,0-0.1,0.1-0.1c0.3-0.4,0.9-0.6,1.4-0.3l8.4,4.6c0.4,0.1,0.6,0.5,0.5,0.9s-0.4,0.7-0.8,0.8l-9.2,2H1558.2z"/>
<path class="st6" d="M1595.3,162.6h-0.2l-9.2-2c-0.4-0.1-0.7-0.4-0.8-0.8c-0.1-0.4,0.1-0.8,0.5-0.9l8.4-4.6c0.5-0.3,1.1-0.1,1.4,0.3
	c0.3,0.4,0.2,0.9-0.2,1.2l0,0l-0.1,0.1l-6.3,3.4l6.7,1.5c0.5,0.1,0.9,0.5,0.8,1v0.1C1596.2,162.3,1595.8,162.6,1595.3,162.6z"/>
<rect x="1336.9" y="301.4" class="st0" width="385.1" height="521.4"/>
<path class="st10" d="M1339.1,228.1h380.7c10.9,0,19.7,8.8,19.7,19.6v628.6c0,10.9-8.8,19.7-19.6,19.7l0,0h-380.8
	c-10.9,0-19.7-8.8-19.7-19.6l0,0V247.8c0-10.8,8.7-19.7,19.5-19.7l0,0H1339.1z"/>
<path class="st11" d="M1469,268L1469,268c0-2.6,2.3-4.7,5.3-4.7h110.4c2.9,0,5.3,2.1,5.3,4.7l0,0c0,2.6-2.3,4.7-5.3,4.7h-110.4
	C1471.3,272.7,1469,270.6,1469,268z"/>
<ellipse class="st11" cx="1529.4" cy="856.7" rx="23.2" ry="20.6"/>
<ellipse class="st12" cx="1829" cy="870.2" rx="50.6" ry="44.8"/>
<ellipse class="st12" cx="1241.5" cy="187.3" rx="25.8" ry="22.9"/>
<ellipse class="st12" cx="1713.7" cy="143.8" rx="43.8" ry="38.8"/>
<ellipse class="st12" cx="1443.4" cy="972.3" rx="25.8" ry="22.9"/>
<path id="path3611" class="st0" d="M1703.7,173.5c20.3,0,31.4-19.7,31.4-36.8V135c2.2-1.9,4.1-4.2,5.5-6.7c-2,1-4.1,1.7-6.3,2
	c2.4-1.8,4.1-4.3,4.9-7.2c-2.1,1.5-4.5,2.6-7,3.1c-1.9-2.5-4.9-4-8.1-4.1c-6.1,0-11,5.8-11,12.9c0,1,0.1,2,0.3,3
	c-9.2-0.5-17.3-5.7-22.8-13.5c-1,2-1.5,4.2-1.5,6.5c-0.1,4.2,1.7,8.1,4.9,10.8c-1.8-0.1-3.5-0.6-5-1.6v0.2c0,6.3,3.8,11.5,8.9,12.7
	c-0.9,0.3-1.9,0.5-2.9,0.5c-0.7,0-1.4-0.1-2.1-0.2c1.4,5.1,5.5,8.9,10.3,9c-3.7,3.5-8.6,5.5-13.7,5.5c-0.9,0-1.7-0.1-2.6-0.2
	C1691.7,171.4,1697.6,173.4,1703.7,173.5"/>
<g class="st13">
	<ellipse class="st14" cx="1867" cy="418.4" rx="11.7" ry="10.4"/>
	<path class="st14" d="M1715,398.7c0,5.7-5.2,10.4-11.7,10.4s-11.7-4.6-11.7-10.4s5.2-10.4,11.7-10.4S1715,393,1715,398.7z"/>
	<ellipse class="st14" cx="906.5" cy="381.1" rx="11.7" ry="10.4"/>
	<ellipse class="st14" cx="751.4" cy="278" rx="11.7" ry="10.4"/>
	<ellipse class="st14" cx="1757.6" cy="934.8" rx="11.7" ry="10.4"/>
	<path class="st14" d="M608.9,916.7c0,5.7-5.2,10.4-11.7,10.4s-11.7-4.7-11.7-10.4s5.2-10.4,11.7-10.4S608.9,911,608.9,916.7z"/>
	<path class="st14" d="M1170.7,621.4c0,5.7-5.2,10.4-11.7,10.4s-11.7-4.7-11.7-10.4s5.2-10.4,11.7-10.4S1170.7,615.6,1170.7,621.4z"
		/>
	<path class="st14" d="M635.2,499.5c0,5.7-5.2,10.4-11.7,10.4s-11.7-4.6-11.7-10.4s5.2-10.4,11.7-10.4S635.2,493.8,635.2,499.5z"/>
	<ellipse class="st14" cx="1042.9" cy="164.2" rx="11.7" ry="10.4"/>
	<path class="st14" d="M1870.2,162.6c0,5.7-5.2,10.4-11.7,10.4s-11.7-4.6-11.7-10.4s5.2-10.4,11.7-10.4S1870.2,156.9,1870.2,162.6z"
		/>
	<path class="st0" d="M1501.5,189.7h-8.6V182c-0.2-1.4-1.4-2.4-2.8-2.2c-1.1,0.1-2,1-2.2,2.2v7.7h-8.6c-1.2-0.2-2.3,0.7-2.5,1.9
		s0.7,2.3,1.9,2.5c0,0,0,0,0.1,0c0.2,0,0.4,0,0.6,0h8.6v7.6c0.2,1.4,1.4,2.4,2.8,2.2c1.1-0.1,2-1,2.2-2.2v-7.6h8.6
		c1.3,0.1,2.4-0.9,2.5-2.2c0-1.3-1.1-2.3-2.4-2.2l0,0H1501.5z"/>
	<path class="st0" d="M1193.6,126.5h-8.6v-7.7c-0.2-1.4-1.4-2.4-2.8-2.2c-1.1,0.1-2,1-2.2,2.2v7.7h-8.6c-1.2-0.2-2.3,0.7-2.5,1.9
		s0.7,2.3,1.9,2.5c0,0,0,0,0.1,0c0.2,0,0.4,0,0.6,0h8.6v7.7c0.2,1.4,1.4,2.4,2.8,2.2c1.1-0.1,2-1,2.2-2.2v-7.7h8.6
		c1.2,0.2,2.3-0.7,2.5-1.9s-0.7-2.3-1.9-2.5c0,0,0,0-0.1,0C1194,126.5,1193.8,126.5,1193.6,126.5z"/>
	<path class="st0" d="M882.4,201.8h-8.6v-7.7c-0.2-1.4-1.4-2.4-2.8-2.2c-1.1,0.1-2,1-2.2,2.2v7.7h-8.6c-1.2-0.2-2.3,0.7-2.5,1.9
		s0.7,2.3,1.9,2.5c0,0,0,0,0.1,0c0.2,0,0.4,0,0.6,0h8.6v7.6c0.2,1.4,1.4,2.4,2.8,2.2c1.1-0.1,2-1,2.2-2.2v-7.6h8.6
		c1.2,0.2,2.3-0.7,2.5-1.9s-0.7-2.3-1.9-2.5c0,0,0,0-0.1,0C882.8,201.8,882.6,201.8,882.4,201.8z"/>
	<path class="st0" d="M1038.5,420.7h-8.6V413c-0.2-1.4-1.4-2.4-2.8-2.2c-1.1,0.1-2,1-2.2,2.2v7.7h-8.6c-1.2-0.2-2.3,0.7-2.5,1.9
		c-0.2,1.2,0.7,2.3,1.9,2.5c0,0,0,0,0.1,0c0.2,0,0.4,0,0.6,0h8.6v7.6c0.2,1.4,1.4,2.4,2.8,2.2c1.1-0.1,2-1,2.2-2.2v-7.6h8.6
		c1.2,0.2,2.3-0.7,2.5-1.9s-0.7-2.3-1.9-2.5c0,0,0,0-0.1,0C1038.9,420.7,1038.7,420.7,1038.5,420.7z"/>
	<path class="st0" d="M891.1,777.6h-8.6v-7.7c-0.2-1.4-1.4-2.4-2.8-2.2c-1.1,0.1-2,1-2.2,2.2v7.7h-8.6c-1.2-0.2-2.3,0.7-2.5,1.9
		s0.7,2.3,1.9,2.5c0,0,0,0,0.1,0c0.2,0,0.4,0,0.6,0h8.6v7.7c0.2,1.4,1.4,2.4,2.8,2.2c1.1-0.1,2-1,2.2-2.2V782h8.6
		c1.3,0.1,2.4-0.9,2.5-2.2c0-1.3-1.1-2.3-2.4-2.2l0,0H891.1z"/>
	<path class="st0" d="M1869.7,777.6h-8.6v-7.7c-0.2-1.4-1.4-2.4-2.8-2.2c-1.1,0.1-2,1-2.2,2.2v7.7h-8.6c-1.2-0.2-2.3,0.7-2.5,1.9
		s0.7,2.3,1.9,2.5c0,0,0,0,0.1,0c0.2,0,0.4,0,0.6,0h8.6v7.7c0.2,1.4,1.4,2.4,2.8,2.2c1.1-0.1,2-1,2.2-2.2V782h8.6
		c1.2,0.2,2.3-0.7,2.5-1.9s-0.7-2.3-1.9-2.5c0,0,0,0-0.1,0C1870.1,777.6,1869.9,777.6,1869.7,777.6z"/>
	<path class="st0" d="M951.6,651.9H943v-7.7c-0.2-1.4-1.4-2.4-2.8-2.2c-1.1,0.1-2,1-2.2,2.2v7.7h-8.6c-1.2-0.2-2.3,0.7-2.5,1.9
		s0.7,2.3,1.9,2.5c0,0,0,0,0.1,0c0.2,0,0.4,0,0.6,0h8.6v7.7c0.2,1.4,1.4,2.4,2.8,2.2c1.1-0.1,2-1,2.2-2.2v-7.7h8.6
		c1.2,0.2,2.3-0.7,2.5-1.9s-0.7-2.3-1.9-2.5c0,0,0,0-0.1,0C952,651.9,951.8,651.9,951.6,651.9z"/>
	<path class="st0" d="M1601,920.7h-8.6v-7.6c-0.2-1.4-1.4-2.4-2.8-2.2c-1.1,0.1-2,1-2.2,2.2v7.7h-8.6c-1.2-0.2-2.3,0.7-2.5,1.9
		s0.7,2.3,1.9,2.5c0,0,0,0,0.1,0c0.2,0,0.4,0,0.6,0h8.6v7.7c0.2,1.4,1.4,2.4,2.8,2.2c1.1-0.1,2-1,2.2-2.2v-7.7h8.6
		c1.3,0.1,2.4-0.9,2.5-2.2c0-1.3-1.1-2.3-2.3-2.3L1601,920.7z"/>
	<path class="st0" d="M1806.8,584.9h-8.6v-7.7c-0.2-1.4-1.4-2.4-2.8-2.2c-1.1,0.1-2,1-2.2,2.2v7.7h-8.6c-1.2-0.2-2.3,0.7-2.5,1.9
		s0.7,2.3,1.9,2.5c0,0,0,0,0.1,0c0.2,0,0.4,0,0.6,0h8.6v7.7c0.2,1.4,1.4,2.4,2.8,2.2c1.1-0.1,2-1,2.2-2.2v-7.7h8.6
		c1.2,0.2,2.3-0.7,2.5-1.9s-0.7-2.3-1.9-2.5c0,0,0,0-0.1,0C1807.2,584.9,1807,584.9,1806.8,584.9z"/>
</g>
<g id="layer1">
	<path id="path3611-2" class="st0" d="M1818.1,897.2c22,0,34-20,34-37.4v-1.7c2.4-1.9,4.4-4.2,6-6.8c-2.2,1.1-4.5,1.8-6.9,2.1
		c2.6-1.7,4.5-4.3,5.3-7.3c-2.3,1.5-4.9,2.6-7.6,3.2c-2.1-2.6-5.3-4.2-8.7-4.2c-6.6,0-12,5.9-12,13.1c0,1,0.1,2,0.3,3
		c-9.9-0.5-18.7-5.8-24.6-13.7c-1.1,2-1.6,4.3-1.6,6.6c-0.1,4.3,1.9,8.3,5.3,10.9c-1.9-0.1-3.8-0.6-5.4-1.6v0.2
		c0,6.4,4.1,11.7,9.6,12.9c-1,0.3-2.1,0.5-3.2,0.5c-0.7,0-1.5-0.1-2.2-0.2c1.3,5.2,5.9,8.9,11.2,9.1c-4.1,3.6-9.4,5.6-14.8,5.6
		c-1,0-1.9-0.1-2.9-0.2C1805.2,895.2,1811.6,897.2,1818.1,897.2"/>
</g>
<g id="layer1-2">
	<path id="path3611-3" class="st0" d="M1437.5,985.8c10,0.3,18.4-7.6,18.7-17.6c0-0.1,0-0.2,0-0.3v-0.8c1.3-0.9,2.4-2,3.3-3.3
		c-1.2,0.5-2.5,0.8-3.8,1c1.4-0.8,2.4-2,2.9-3.5c-1.3,0.7-2.7,1.2-4.2,1.5c-1.3-1.3-3-2-4.8-2c-3.6-0.1-6.5,2.7-6.6,6.3
		c0,0.5,0.1,0.9,0.2,1.4c-5.2-0.2-10.1-2.6-13.5-6.6c-0.6,1-0.9,2.1-0.9,3.2c0,2.1,1.1,4.1,2.9,5.3c-1.1,0-2.1-0.3-3-0.8v0.1
		c0.1,3.1,2.3,5.7,5.3,6.2c-0.6,0.1-1.1,0.2-1.7,0.2c-0.4,0-0.8,0-1.2-0.1c0.9,2.6,3.3,4.3,6.1,4.4c-2.3,1.8-5.2,2.7-8.1,2.7
		c-0.5,0-1.1,0-1.6-0.1C1430.5,984.9,1434,985.8,1437.5,985.8"/>
</g>
<g id="layer1-3">
	<path id="path3611-4" class="st0" d="M1235.9,201.8c11.3,0,17.5-10.4,17.5-19.4v-0.9c1.2-1,2.2-2.2,3.1-3.5
		c-1.1,0.5-2.3,0.9-3.5,1.1c1.3-0.9,2.3-2.3,2.7-3.8c-1.2,0.8-2.5,1.3-3.9,1.7c-1.1-1.4-2.7-2.2-4.5-2.2c-3.4,0-6.1,3.1-6.1,6.8
		c0,0.5,0.1,1.1,0.2,1.6c-5.1-0.4-9.7-3-12.7-7.1c-0.5,1.1-0.8,2.2-0.8,3.4c0,2.2,1,4.3,2.7,5.7c-1,0-2-0.3-2.8-0.9v0.1
		c-0.1,3.1,1.9,5.9,4.9,6.7c-0.5,0.2-1.1,0.2-1.6,0.2c-0.4,0-0.8,0-1.2-0.1c0.6,2.7,3,4.6,5.7,4.7c-2.1,1.9-4.8,2.9-7.6,2.9
		c-0.5,0-1,0-1.5-0.1C1229.3,200.7,1232.5,201.8,1235.9,201.8"/>
</g>
<ellipse class="st15" cx="1030.8" cy="619.9" rx="43.8" ry="38.8"/>
<ellipse class="st15" cx="763.1" cy="152.2" rx="43.8" ry="38.8"/>
<path id="path3611-5" class="st0" d="M753,177.9c20.3,0,31.4-19.7,31.4-36.8v-1.7c2.2-1.9,4.1-4.2,5.5-6.7c-2,1-4.1,1.7-6.3,2
	c2.4-1.8,4.1-4.3,4.9-7.2c-2.1,1.5-4.5,2.6-7,3.1c-1.9-2.5-4.9-4-8.1-4.1c-6.1,0-11,5.8-11,12.9c0,1,0.1,2,0.3,3
	c-9.2-0.5-17.3-5.7-22.8-13.5c-1,2-1.5,4.2-1.5,6.5c-0.1,4.2,1.7,8.1,4.9,10.8c-1.8-0.1-3.5-0.6-5-1.6v0.2c0,6.3,3.8,11.5,8.9,12.7
	c-0.9,0.3-1.9,0.5-2.9,0.5c-0.7,0-1.4-0.1-2.1-0.2c1.4,5.1,5.5,8.9,10.3,9c-3.7,3.5-8.6,5.5-13.7,5.5c-0.9,0-1.7-0.1-2.6-0.2
	C741.1,175.8,747,177.8,753,177.9"/>
<path id="path3611-6" class="st0" d="M1022.6,645.6c20.3,0,31.4-19.7,31.4-36.8v-1.7c2.2-1.9,4.1-4.2,5.5-6.7c-2,1-4.1,1.7-6.3,2
	c2.4-1.8,4.1-4.3,4.9-7.2c-2.1,1.5-4.5,2.6-7,3.1c-1.9-2.5-4.9-4-8.1-4.1c-6.1,0-11,5.8-11,12.9c0,1,0.1,2,0.3,3
	c-9.2-0.5-17.3-5.7-22.8-13.5c-1,2-1.5,4.2-1.5,6.5c-0.1,4.2,1.7,8.1,4.9,10.8c-1.8-0.1-3.5-0.6-5-1.6v0.2c0,6.3,3.8,11.5,8.9,12.7
	c-0.9,0.3-1.9,0.5-2.9,0.5c-0.7,0-1.4-0.1-2.1-0.2c1.4,5.1,5.5,8.9,10.3,9c-3.7,3.5-8.6,5.5-13.7,5.5c-0.9,0-1.7-0.1-2.6-0.2
	C1010.6,643.5,1016.5,645.5,1022.6,645.6"/>
<image style="overflow:visible;enable-background:new    ;" width="820" height="1070" xlink:href="home.png"  transform="matrix(0.4696 0 0 0.4846 1336.9 304.3)">
</image>
</svg>
